<svg width="32" height="32" viewBox="0 0 32 32" fill="none" xmlns="http://www.w3.org/2000/svg">
<path opacity="0.1" fill-rule="evenodd" clip-rule="evenodd" d="M0 16.0002C0 7.16369 7.16344 0.000244141 16 0.000244141C24.8366 0.000244141 32 7.16369 32 16.0002C32 24.8368 24.8366 32.0002 16 32.0002C7.16344 32.0002 0 24.8368 0 16.0002Z" fill="#161A34"/>
<path fill-rule="evenodd" clip-rule="evenodd" d="M16.0007 7.46692C13.6832 7.46692 13.3923 7.47705 12.4821 7.51848C11.5736 7.56008 10.9535 7.7039 10.4109 7.91492C9.84969 8.13288 9.37359 8.42444 8.89928 8.89893C8.42461 9.37325 8.13305 9.84934 7.91438 10.4104C7.70282 10.9532 7.55882 11.5735 7.51793 12.4815C7.47722 13.3918 7.46655 13.6828 7.46655 16.0003C7.46655 18.3179 7.47686 18.6078 7.51811 19.5181C7.55989 20.4265 7.70371 21.0466 7.91456 21.5892C8.13269 22.1504 8.42425 22.6265 8.89875 23.1009C9.37288 23.5755 9.84898 23.8678 10.4099 24.0858C10.9528 24.2968 11.5731 24.4406 12.4814 24.4822C13.3916 24.5236 13.6823 24.5338 15.9996 24.5338C18.3173 24.5338 18.6073 24.5236 19.5175 24.4822C20.426 24.4406 21.0468 24.2968 21.5897 24.0858C22.1508 23.8678 22.6262 23.5755 23.1003 23.1009C23.575 22.6265 23.8665 22.1504 24.0852 21.5894C24.295 21.0466 24.439 20.4263 24.4817 19.5182C24.5226 18.608 24.5332 18.3179 24.5332 16.0003C24.5332 13.6828 24.5226 13.392 24.4817 12.4817C24.439 11.5733 24.295 10.9532 24.0852 10.4106C23.8665 9.84934 23.575 9.37325 23.1003 8.89893C22.6256 8.42426 22.151 8.1327 21.5892 7.91492C21.0452 7.7039 20.4247 7.56008 19.5163 7.51848C18.606 7.47705 18.3163 7.46692 15.998 7.46692H16.0007ZM15.2351 9.00469C15.4623 9.00433 15.7158 9.00469 16.0006 9.00469C18.2791 9.00469 18.5491 9.01287 19.4489 9.05376C20.2809 9.0918 20.7324 9.23082 21.0332 9.34763C21.4315 9.50229 21.7154 9.68718 22.0139 9.98585C22.3125 10.2845 22.4974 10.569 22.6525 10.9672C22.7693 11.2676 22.9085 11.7192 22.9463 12.5512C22.9872 13.4508 22.9961 13.721 22.9961 15.9984C22.9961 18.2757 22.9872 18.5459 22.9463 19.4455C22.9083 20.2775 22.7693 20.7291 22.6525 21.0295C22.4978 21.4278 22.3125 21.7113 22.0139 22.0098C21.7152 22.3085 21.4316 22.4934 21.0332 22.648C20.7328 22.7654 20.2809 22.904 19.4489 22.9421C18.5493 22.983 18.2791 22.9919 16.0006 22.9919C13.722 22.9919 13.452 22.983 12.5524 22.9421C11.7204 22.9037 11.2689 22.7647 10.9679 22.6479C10.5697 22.4932 10.2852 22.3083 9.98654 22.0096C9.68787 21.711 9.50298 21.4272 9.34796 21.0288C9.23116 20.7284 9.09196 20.2768 9.05409 19.4448C9.0132 18.5452 9.00502 18.275 9.00502 15.9962C9.00502 13.7174 9.0132 13.4486 9.05409 12.5491C9.09213 11.7171 9.23116 11.2655 9.34796 10.9647C9.50263 10.5665 9.68787 10.282 9.98654 9.98337C10.2852 9.6847 10.5697 9.4998 10.9679 9.34478C11.2687 9.22745 11.7204 9.08878 12.5524 9.05056C13.3396 9.015 13.6447 9.00433 15.2351 9.00256V9.00469ZM20.5557 10.4216C19.9904 10.4216 19.5317 10.8797 19.5317 11.4453C19.5317 12.0106 19.9904 12.4693 20.5557 12.4693C21.1211 12.4693 21.5797 12.0106 21.5797 11.4453C21.5797 10.8799 21.1211 10.4216 20.5557 10.4216ZM16.0007 11.6181C13.5806 11.6181 11.6184 13.5802 11.6184 16.0003C11.6184 18.4204 13.5806 20.3817 16.0007 20.3817C18.4208 20.3817 20.3823 18.4204 20.3823 16.0003C20.3823 13.5802 18.4208 11.6181 16.0007 11.6181ZM16.0007 13.1558C17.5715 13.1558 18.8451 14.4293 18.8451 16.0003C18.8451 17.5712 17.5715 18.8448 16.0007 18.8448C14.4296 18.8448 13.1562 17.5712 13.1562 16.0003C13.1562 14.4293 14.4296 13.1558 16.0007 13.1558Z" fill="#161A34"/>
</svg>
