<svg width="14" height="3" viewBox="0 0 14 3" fill="none" xmlns="http://www.w3.org/2000/svg">
<path d="M1.66822 0.0301514C0.866716 0.0301514 0.210938 0.68593 0.210938 1.48744C0.210938 2.28895 0.866716 2.94472 1.66822 2.94472C2.46973 2.94472 3.12551 2.28895 3.12551 1.48744C3.12551 0.68593 2.46973 0.0301514 1.66822 0.0301514Z" fill="#7E8492"/>
<path d="M11.8692 0.0301514C11.0676 0.0301514 10.4119 0.68593 10.4119 1.48744C10.4119 2.28895 11.0676 2.94472 11.8692 2.94472C12.6707 2.94472 13.3264 2.28895 13.3264 1.48744C13.3264 0.68593 12.6707 0.0301514 11.8692 0.0301514Z" fill="#7E8492"/>
<path d="M6.76857 0.0301514C5.96706 0.0301514 5.31128 0.68593 5.31128 1.48744C5.31128 2.28895 5.96706 2.94472 6.76857 2.94472C7.57007 2.94472 8.22585 2.28895 8.22585 1.48744C8.22585 0.68593 7.57007 0.0301514 6.76857 0.0301514Z" fill="#7E8492"/>
</svg>
