<svg width="580" height="280" viewBox="0 0 580 280" fill="none" xmlns="http://www.w3.org/2000/svg">
<g filter="url(#filter0_d_1_2623)">
<rect x="60.0957" y="40.7371" width="419" height="119" rx="8" transform="rotate(0.0158183 60.0957 40.7371)" fill="black"/>
<path d="M94.6208 106.565L94.6259 88.3829L95.7906 88.3832L95.7856 106.565L94.6208 106.565ZM97.7137 94.3852C97.657 93.8123 97.4133 93.3671 96.9825 93.0498C96.5517 92.7324 95.967 92.5736 95.2284 92.5734C94.7265 92.5733 94.3027 92.6442 93.957 92.7861C93.6113 92.9234 93.3461 93.115 93.1614 93.3612C92.9814 93.6074 92.8914 93.8867 92.8913 94.1992C92.8818 94.4596 92.9361 94.6869 93.0545 94.8811C93.1775 95.0752 93.3456 95.2434 93.5586 95.3855C93.7716 95.5228 94.0178 95.6436 94.2971 95.7479C94.5765 95.8474 94.8747 95.9327 95.1919 96.0038L96.4987 96.3167C97.1331 96.4589 97.7154 96.6484 98.2457 96.8853C98.7759 97.1222 99.2351 97.4135 99.6233 97.7593C100.011 98.105 100.312 98.5123 100.525 98.9811C100.743 99.4499 100.854 99.9874 100.858 100.593C100.853 101.484 100.626 102.255 100.176 102.909C99.7306 103.557 99.0865 104.061 98.2436 104.421C97.4054 104.776 96.3945 104.953 95.2108 104.953C94.0365 104.952 93.0139 104.772 92.1427 104.412C91.2764 104.052 90.5994 103.519 90.1119 102.813C89.6292 102.103 89.3761 101.225 89.3527 100.178L92.3286 100.179C92.3616 100.667 92.5011 101.074 92.7473 101.401C92.9981 101.723 93.3319 101.967 93.7485 102.133C94.1698 102.294 94.6457 102.374 95.176 102.375C95.6968 102.375 96.149 102.299 96.5326 102.148C96.9209 101.996 97.2216 101.786 97.4347 101.516C97.6479 101.246 97.7545 100.936 97.7546 100.585C97.7547 100.259 97.6577 99.9841 97.4636 99.7615C97.2743 99.5389 96.995 99.3495 96.6257 99.1931C96.2612 99.0368 95.8138 98.8946 95.2835 98.7666L93.6998 98.3685C92.4736 98.0698 91.5054 97.6032 90.7954 96.9685C90.0853 96.3338 89.7328 95.4791 89.7378 94.4043C89.7333 93.5236 89.9679 92.7543 90.4416 92.0962C90.92 91.4382 91.5759 90.9247 92.4094 90.5556C93.2428 90.1865 94.1898 90.0021 95.2504 90.0024C96.33 90.0027 97.2721 90.1876 98.077 90.5572C98.8865 90.9267 99.5161 91.4406 99.9657 92.0989C100.415 92.7571 100.647 93.5195 100.661 94.386L97.7137 94.3852ZM108.217 104.949C107.156 104.949 106.212 104.766 105.383 104.402C104.559 104.032 103.908 103.525 103.43 102.881C102.957 102.232 102.714 101.484 102.7 100.637L105.796 100.637C105.815 100.993 105.931 101.305 106.144 101.575C106.362 101.84 106.65 102.046 107.01 102.193C107.37 102.34 107.775 102.414 108.225 102.414C108.693 102.414 109.108 102.331 109.468 102.165C109.827 102 110.109 101.77 110.313 101.477C110.517 101.183 110.619 100.845 110.619 100.461C110.619 100.073 110.51 99.7296 110.292 99.4313C110.079 99.1282 109.772 98.8914 109.369 98.7208C108.971 98.5502 108.498 98.4649 107.949 98.4647L106.592 98.4643L106.593 96.2058L107.949 96.2062C108.413 96.2063 108.823 96.1259 109.178 95.9651C109.538 95.8042 109.817 95.5817 110.016 95.2977C110.215 95.0089 110.315 94.6728 110.315 94.2892C110.315 93.9246 110.228 93.605 110.052 93.3304C109.882 93.0509 109.641 92.8331 109.328 92.6767C109.02 92.5204 108.661 92.4422 108.249 92.4421C107.832 92.442 107.451 92.5176 107.105 92.669C106.759 92.8157 106.482 93.0263 106.274 93.3009C106.066 93.5755 105.954 93.8974 105.94 94.2667L102.992 94.2659C103.007 93.4278 103.246 92.6893 103.71 92.0502C104.175 91.4111 104.8 90.9118 105.586 90.5521C106.377 90.1878 107.269 90.0057 108.264 90.006C109.267 90.0063 110.146 90.1888 110.898 90.5536C111.651 90.9184 112.236 91.411 112.652 92.0314C113.073 92.647 113.282 93.3383 113.277 94.1054C113.281 94.9198 113.028 95.5992 112.516 96.1435C112.009 96.6879 111.349 97.0334 110.534 97.1799L110.534 97.2936C111.604 97.4312 112.419 97.8031 112.977 98.4093C113.54 99.0108 113.82 99.7637 113.815 100.668C113.819 101.497 113.58 102.233 113.097 102.877C112.618 103.52 111.958 104.027 111.115 104.396C110.272 104.765 109.306 104.949 108.217 104.949ZM122.356 90.2087L122.352 104.754L119.277 104.753L119.28 93.1269L119.195 93.1269L115.863 95.2141L115.864 92.4868L119.466 90.208L122.356 90.2087ZM128.345 102.767L128.267 103.548C128.205 104.173 128.087 104.796 127.911 105.416C127.741 106.041 127.561 106.607 127.371 107.114C127.186 107.62 127.037 108.018 126.923 108.307L124.963 108.306C125.034 108.027 125.131 107.636 125.255 107.134C125.378 106.637 125.494 106.078 125.603 105.458C125.712 104.838 125.781 104.206 125.81 103.562L125.845 102.767L128.345 102.767ZM136.2 105.078C134.978 105.073 133.927 104.772 133.047 104.175C132.171 103.578 131.496 102.714 131.023 101.582C130.555 100.45 130.323 99.0888 130.328 97.4979C130.329 95.9117 130.563 94.56 131.032 93.4427C131.506 92.3254 132.181 91.4757 133.057 90.8935C133.938 90.3066 134.987 90.0134 136.204 90.0137C137.421 90.014 138.467 90.3079 139.343 90.8953C140.223 91.4826 140.9 92.3351 141.373 93.4526C141.847 94.5655 142.081 95.915 142.075 97.5011C142.075 99.0968 141.838 100.46 141.364 101.592C140.895 102.723 140.222 103.587 139.346 104.184C138.47 104.78 137.421 105.078 136.2 105.078ZM136.2 102.528C137.034 102.528 137.699 102.109 138.197 101.271C138.694 100.433 138.94 99.1764 138.936 97.5003C138.937 96.397 138.823 95.4784 138.596 94.7445C138.374 94.0105 138.057 93.4588 137.645 93.0894C137.238 92.72 136.757 92.5352 136.203 92.535C135.375 92.5348 134.712 92.9489 134.214 93.7774C133.717 94.6058 133.466 95.8463 133.46 97.4987C133.46 98.6162 133.571 99.549 133.793 100.297C134.02 101.041 134.34 101.599 134.752 101.974C135.164 102.343 135.646 102.528 136.2 102.528ZM149.533 90.0174C150.281 90.0176 151.001 90.1433 151.692 90.3944C152.388 90.6455 153.008 91.0458 153.553 91.5952C154.102 92.1446 154.535 92.8739 154.852 93.7831C155.173 94.6875 155.336 95.7979 155.341 97.1142C155.34 98.35 155.2 99.4531 154.921 100.424C154.646 101.39 154.25 102.211 153.734 102.888C153.218 103.565 152.595 104.081 151.866 104.436C151.136 104.786 150.322 104.961 149.422 104.961C148.452 104.96 147.595 104.773 146.852 104.399C146.108 104.02 145.509 103.506 145.055 102.857C144.605 102.204 144.333 101.47 144.239 100.655L147.272 100.656C147.39 101.186 147.638 101.598 148.017 101.892C148.396 102.181 148.864 102.325 149.423 102.326C150.37 102.326 151.09 101.914 151.583 101.09C152.075 100.262 152.324 99.128 152.329 97.6886L152.23 97.6886C152.012 98.1147 151.718 98.4815 151.349 98.7892C150.979 99.0921 150.556 99.3264 150.077 99.492C149.604 99.6576 149.1 99.7403 148.564 99.7401C147.707 99.7399 146.943 99.5385 146.271 99.1358C145.598 98.7332 145.068 98.179 144.68 97.4734C144.292 96.7678 144.098 95.9629 144.098 95.0585C144.094 94.0831 144.319 93.2143 144.774 92.4522C145.229 91.69 145.863 91.0936 146.678 90.6629C147.497 90.2275 148.449 90.0124 149.533 90.0174ZM149.554 92.4322C149.076 92.432 148.649 92.5456 148.275 92.7727C147.906 92.9999 147.612 93.3052 147.394 93.6887C147.181 94.0721 147.077 94.5006 147.081 94.9741C147.081 95.4523 147.185 95.8832 147.394 96.2668C147.607 96.6456 147.895 96.9488 148.26 97.1761C148.629 97.3988 149.05 97.5102 149.524 97.5103C149.879 97.5104 150.208 97.4442 150.511 97.3117C150.814 97.1792 151.077 96.997 151.3 96.765C151.527 96.5284 151.705 96.2562 151.833 95.9484C151.961 95.6407 152.025 95.314 152.025 94.9684C152.02 94.5091 151.911 94.0876 151.698 93.7041C151.485 93.3205 151.192 93.0126 150.818 92.7805C150.444 92.5484 150.022 92.4323 149.554 92.4322ZM157.469 104.764L157.47 102.548L162.649 97.7554C163.089 97.3294 163.459 96.9459 163.757 96.6051C164.06 96.2643 164.29 95.9306 164.446 95.6039C164.603 95.2725 164.681 94.915 164.681 94.5315C164.681 94.1054 164.584 93.7384 164.39 93.4306C164.196 93.118 163.931 92.8788 163.595 92.713C163.259 92.5425 162.878 92.4572 162.451 92.457C162.006 92.4569 161.618 92.5468 161.287 92.7266C160.955 92.9064 160.699 93.1644 160.519 93.5005C160.339 93.8367 160.249 94.2367 160.249 94.7007L157.33 94.6999C157.33 93.7482 157.546 92.9221 157.977 92.2214C158.408 91.5208 159.012 90.9788 159.789 90.5955C160.565 90.2122 161.46 90.0207 162.473 90.021C163.515 90.0212 164.422 90.2062 165.193 90.5757C165.97 90.9405 166.573 91.4473 167.004 92.0961C167.435 92.7449 167.65 93.4883 167.65 94.3264C167.65 94.8756 167.541 95.4177 167.323 95.9527C167.109 96.4877 166.728 97.0818 166.179 97.7351C165.629 98.3836 164.855 99.1622 163.856 100.071L161.731 102.151L161.731 102.251L167.839 102.253L167.839 104.767L157.469 104.764Z" fill="white"/>
<path d="M149.025 126.125L149.024 127.119L144.908 127.118L144.908 126.124L149.025 126.125ZM146.139 133.761L146.141 125.07C146.142 124.633 146.244 124.268 146.45 123.977C146.655 123.685 146.922 123.466 147.251 123.321C147.579 123.175 147.925 123.102 148.29 123.102C148.578 123.102 148.813 123.126 148.996 123.172C149.178 123.218 149.314 123.262 149.403 123.301L149.065 124.315C149.005 124.296 148.922 124.271 148.816 124.241C148.714 124.211 148.578 124.196 148.409 124.196C148.021 124.196 147.741 124.294 147.568 124.489C147.399 124.685 147.315 124.971 147.315 125.349L147.312 133.761L146.139 133.761ZM150.167 133.762L150.169 126.125L151.302 126.126L151.302 127.279L151.382 127.279C151.521 126.901 151.773 126.595 152.138 126.36C152.502 126.124 152.913 126.007 153.371 126.007C153.457 126.007 153.565 126.009 153.694 126.012C153.823 126.015 153.921 126.02 153.987 126.027L153.987 127.22C153.947 127.21 153.856 127.195 153.713 127.175C153.574 127.152 153.427 127.141 153.271 127.141C152.9 127.14 152.568 127.218 152.277 127.374C151.988 127.526 151.759 127.738 151.59 128.01C151.425 128.278 151.342 128.585 151.341 128.93L151.34 133.762L150.167 133.762ZM157.746 133.923C157.056 133.923 156.451 133.759 155.931 133.43C155.414 133.102 155.01 132.643 154.718 132.053C154.43 131.463 154.286 130.773 154.287 129.985C154.287 129.189 154.431 128.495 154.72 127.902C155.011 127.308 155.416 126.848 155.933 126.52C156.454 126.192 157.058 126.028 157.748 126.028C158.437 126.028 159.04 126.193 159.557 126.521C160.078 126.849 160.482 127.31 160.77 127.903C161.062 128.497 161.207 129.191 161.207 129.986C161.207 130.775 161.061 131.465 160.769 132.055C160.48 132.644 160.076 133.103 159.555 133.431C159.038 133.759 158.435 133.923 157.746 133.923ZM157.746 132.869C158.27 132.869 158.701 132.735 159.039 132.467C159.377 132.198 159.627 131.845 159.79 131.408C159.952 130.97 160.034 130.497 160.034 129.986C160.034 129.476 159.953 129 159.79 128.559C159.628 128.118 159.378 127.762 159.04 127.49C158.702 127.218 158.271 127.082 157.748 127.082C157.224 127.082 156.793 127.218 156.455 127.489C156.117 127.761 155.866 128.117 155.704 128.558C155.541 128.999 155.46 129.474 155.46 129.985C155.46 130.495 155.541 130.969 155.703 131.407C155.865 131.844 156.115 132.197 156.453 132.466C156.791 132.735 157.222 132.869 157.746 132.869ZM162.497 133.765L162.499 126.129L163.633 126.129L163.632 127.322L163.732 127.322C163.891 126.915 164.148 126.598 164.503 126.373C164.857 126.144 165.283 126.03 165.78 126.03C166.284 126.03 166.703 126.145 167.038 126.374C167.376 126.599 167.639 126.916 167.828 127.323L167.908 127.324C168.103 126.929 168.397 126.616 168.788 126.384C169.179 126.149 169.648 126.031 170.195 126.032C170.878 126.032 171.436 126.246 171.87 126.673C172.304 127.098 172.521 127.759 172.521 128.657L172.52 133.768L171.346 133.768L171.348 128.657C171.348 128.093 171.194 127.691 170.886 127.449C170.578 127.207 170.215 127.086 169.797 127.085C169.26 127.085 168.844 127.248 168.549 127.572C168.254 127.894 168.106 128.301 168.106 128.795L168.105 133.767L166.912 133.766L166.913 128.536C166.913 128.102 166.773 127.752 166.491 127.487C166.209 127.219 165.846 127.084 165.402 127.084C165.097 127.084 164.812 127.165 164.547 127.328C164.285 127.49 164.073 127.715 163.91 128.004C163.751 128.289 163.672 128.618 163.672 128.993L163.67 133.766L162.497 133.765ZM178.779 123.588L178.776 133.77L177.602 133.769L177.605 123.588L178.779 123.588ZM182.672 133.95C182.188 133.95 181.749 133.858 181.354 133.676C180.96 133.49 180.647 133.223 180.415 132.875C180.183 132.524 180.067 132.1 180.067 131.602C180.067 131.165 180.154 130.81 180.326 130.539C180.499 130.264 180.729 130.048 181.017 129.892C181.306 129.737 181.624 129.621 181.972 129.545C182.323 129.465 182.676 129.402 183.031 129.356C183.495 129.297 183.871 129.252 184.16 129.222C184.451 129.189 184.663 129.134 184.796 129.058C184.932 128.982 185 128.85 185 128.661L185 128.621C185 128.13 184.866 127.749 184.598 127.477C184.332 127.205 183.93 127.069 183.39 127.069C182.829 127.069 182.39 127.192 182.072 127.437C181.754 127.682 181.53 127.944 181.401 128.222L180.287 127.824C180.486 127.36 180.751 126.999 181.083 126.741C181.418 126.479 181.782 126.297 182.177 126.194C182.575 126.088 182.966 126.035 183.35 126.035C183.595 126.035 183.877 126.065 184.195 126.125C184.517 126.181 184.827 126.299 185.125 126.478C185.426 126.657 185.677 126.927 185.875 127.289C186.074 127.65 186.173 128.134 186.173 128.74L186.172 133.772L184.999 133.771L184.999 132.737L184.939 132.737C184.86 132.903 184.727 133.08 184.541 133.269C184.356 133.458 184.109 133.619 183.8 133.751C183.492 133.884 183.116 133.95 182.672 133.95ZM182.851 132.896C183.315 132.896 183.706 132.805 184.024 132.623C184.346 132.441 184.588 132.205 184.75 131.917C184.916 131.629 184.999 131.325 184.999 131.007L185 129.933C184.95 129.993 184.84 130.048 184.671 130.097C184.506 130.144 184.313 130.185 184.095 130.221C183.879 130.255 183.669 130.284 183.463 130.311C183.261 130.334 183.097 130.354 182.971 130.37C182.666 130.41 182.381 130.475 182.116 130.564C181.854 130.65 181.642 130.781 181.479 130.957C181.32 131.129 181.241 131.364 181.241 131.662C181.24 132.07 181.391 132.378 181.693 132.587C181.998 132.793 182.384 132.896 182.851 132.896ZM193.224 127.848L192.17 128.146C192.104 127.97 192.006 127.799 191.877 127.633C191.751 127.464 191.579 127.325 191.36 127.216C191.141 127.106 190.861 127.051 190.52 127.051C190.052 127.051 189.663 127.159 189.351 127.374C189.043 127.586 188.889 127.856 188.889 128.184C188.889 128.476 188.995 128.706 189.207 128.876C189.419 129.045 189.75 129.186 190.201 129.298L191.334 129.577C192.017 129.743 192.526 129.997 192.86 130.338C193.195 130.676 193.362 131.112 193.362 131.646C193.362 132.083 193.236 132.474 192.984 132.819C192.735 133.164 192.387 133.435 191.94 133.634C191.492 133.833 190.972 133.932 190.379 133.932C189.6 133.932 188.955 133.763 188.445 133.424C187.935 133.086 187.611 132.592 187.476 131.943L188.589 131.664C188.695 132.075 188.896 132.384 189.191 132.589C189.489 132.795 189.878 132.898 190.359 132.898C190.906 132.898 191.34 132.782 191.662 132.55C191.987 132.315 192.149 132.033 192.149 131.705C192.149 131.44 192.056 131.218 191.871 131.039C191.685 130.857 191.4 130.721 191.016 130.631L189.743 130.332C189.044 130.166 188.53 129.909 188.202 129.561C187.878 129.21 187.715 128.771 187.715 128.244C187.716 127.813 187.837 127.432 188.079 127.1C188.324 126.769 188.657 126.509 189.078 126.32C189.502 126.131 189.983 126.037 190.52 126.037C191.276 126.037 191.869 126.203 192.3 126.535C192.734 126.866 193.042 127.304 193.224 127.848ZM197.951 126.139L197.951 127.133L193.993 127.132L193.994 126.138L197.951 126.139ZM195.147 124.308L196.321 124.309L196.319 131.587C196.319 131.918 196.367 132.167 196.463 132.333C196.562 132.495 196.688 132.605 196.84 132.661C196.996 132.714 197.16 132.741 197.333 132.741C197.462 132.741 197.568 132.734 197.651 132.721C197.734 132.704 197.8 132.691 197.85 132.681L198.088 133.735C198.008 133.765 197.897 133.795 197.755 133.825C197.612 133.858 197.432 133.874 197.213 133.874C196.882 133.874 196.557 133.803 196.239 133.66C195.924 133.518 195.662 133.3 195.453 133.009C195.248 132.717 195.145 132.349 195.145 131.905L195.147 124.308ZM203.406 136.64C203.207 136.64 203.03 136.623 202.874 136.59C202.718 136.56 202.611 136.531 202.551 136.501L202.85 135.467C203.135 135.54 203.387 135.566 203.605 135.546C203.824 135.527 204.018 135.429 204.187 135.253C204.359 135.081 204.517 134.801 204.66 134.413L204.878 133.817L202.057 126.14L203.329 126.14L205.436 132.226L205.515 132.226L207.625 126.141L208.898 126.142L205.654 134.891C205.508 135.285 205.327 135.612 205.112 135.87C204.896 136.132 204.646 136.326 204.361 136.451C204.079 136.577 203.761 136.64 203.406 136.64ZM212.872 133.938C212.137 133.938 211.502 133.775 210.968 133.45C210.438 133.122 210.029 132.665 209.741 132.078C209.456 131.488 209.314 130.802 209.314 130.02C209.314 129.237 209.457 128.548 209.742 127.952C210.03 127.352 210.432 126.885 210.945 126.55C211.463 126.212 212.066 126.043 212.755 126.043C213.153 126.043 213.546 126.11 213.933 126.242C214.321 126.375 214.674 126.591 214.992 126.889C215.31 127.184 215.564 127.575 215.753 128.063C215.941 128.55 216.036 129.15 216.035 129.862L216.035 130.36L210.149 130.358L210.149 129.344L214.842 129.345C214.843 128.914 214.756 128.53 214.584 128.192C214.415 127.853 214.173 127.587 213.859 127.391C213.547 127.195 213.179 127.097 212.755 127.097C212.288 127.097 211.883 127.213 211.542 127.445C211.204 127.674 210.943 127.972 210.761 128.34C210.579 128.707 210.487 129.102 210.487 129.523L210.487 130.199C210.487 130.776 210.586 131.265 210.785 131.666C210.987 132.063 211.267 132.367 211.625 132.576C211.983 132.781 212.399 132.884 212.873 132.884C213.181 132.884 213.459 132.841 213.708 132.755C213.96 132.666 214.177 132.533 214.359 132.358C214.542 132.179 214.683 131.957 214.782 131.692L215.916 132.01C215.796 132.395 215.596 132.733 215.314 133.024C215.032 133.312 214.684 133.538 214.27 133.7C213.855 133.859 213.389 133.938 212.872 133.938ZM219.566 133.96C219.082 133.96 218.643 133.869 218.249 133.686C217.855 133.5 217.541 133.234 217.31 132.885C217.078 132.534 216.962 132.11 216.962 131.613C216.962 131.175 217.048 130.821 217.221 130.549C217.393 130.274 217.623 130.058 217.912 129.903C218.2 129.747 218.518 129.631 218.867 129.555C219.218 129.475 219.571 129.413 219.926 129.366C220.39 129.307 220.766 129.262 221.054 129.232C221.346 129.199 221.558 129.145 221.691 129.068C221.826 128.992 221.894 128.86 221.894 128.671L221.894 128.631C221.895 128.141 221.76 127.759 221.492 127.487C221.227 127.216 220.824 127.08 220.284 127.079C219.724 127.079 219.285 127.202 218.967 127.447C218.648 127.692 218.424 127.954 218.295 128.232L217.182 127.834C217.381 127.37 217.646 127.009 217.977 126.751C218.312 126.489 218.677 126.307 219.071 126.204C219.469 126.098 219.86 126.045 220.245 126.045C220.49 126.045 220.772 126.075 221.09 126.135C221.411 126.192 221.721 126.309 222.019 126.488C222.321 126.667 222.571 126.938 222.77 127.299C222.969 127.66 223.068 128.144 223.068 128.751L223.066 133.782L221.893 133.782L221.893 132.748L221.834 132.747C221.754 132.913 221.621 133.09 221.436 133.279C221.25 133.468 221.003 133.629 220.695 133.761C220.387 133.894 220.01 133.96 219.566 133.96ZM219.746 132.906C220.21 132.906 220.601 132.815 220.919 132.633C221.24 132.451 221.483 132.215 221.645 131.927C221.811 131.639 221.894 131.336 221.894 131.017L221.894 129.944C221.844 130.003 221.735 130.058 221.566 130.108C221.4 130.154 221.208 130.195 220.989 130.232C220.774 130.265 220.563 130.294 220.358 130.321C220.156 130.344 219.992 130.364 219.866 130.38C219.561 130.42 219.276 130.485 219.01 130.574C218.749 130.66 218.536 130.791 218.374 130.967C218.215 131.139 218.135 131.374 218.135 131.673C218.135 132.08 218.286 132.389 218.587 132.597C218.892 132.803 219.278 132.906 219.746 132.906ZM224.708 133.782L224.71 126.146L225.844 126.146L225.843 127.3L225.923 127.3C226.062 126.922 226.314 126.615 226.679 126.38C227.043 126.145 227.454 126.027 227.912 126.028C227.998 126.028 228.106 126.029 228.235 126.033C228.364 126.036 228.462 126.041 228.528 126.048L228.528 127.241C228.488 127.231 228.397 127.216 228.254 127.196C228.115 127.173 227.968 127.161 227.812 127.161C227.441 127.161 227.109 127.239 226.818 127.394C226.529 127.547 226.3 127.759 226.131 128.031C225.966 128.299 225.883 128.606 225.882 128.95L225.881 133.783L224.708 133.782Z" fill="#5C616E"/>
<path d="M105.269 131.86L105.27 130.393L109.592 123.569L110.815 123.569L110.814 125.657L110.069 125.657L107.159 130.265L107.159 130.344L113.189 130.346L113.189 131.862L105.269 131.86ZM110.126 133.751L110.127 131.414L110.147 130.758L110.149 123.569L111.889 123.569L111.886 133.751L110.126 133.751ZM115.618 133.861C115.317 133.861 115.058 133.755 114.843 133.543C114.627 133.331 114.521 133.072 114.525 132.767C114.522 132.469 114.628 132.214 114.843 132.002C115.059 131.79 115.317 131.684 115.619 131.684C115.911 131.684 116.164 131.79 116.379 132.002C116.598 132.214 116.709 132.47 116.712 132.768C116.709 132.97 116.656 133.154 116.553 133.32C116.454 133.486 116.321 133.618 116.155 133.717C115.993 133.813 115.814 133.862 115.618 133.861ZM118.55 133.753L118.551 132.421L122.086 128.956C122.425 128.615 122.706 128.312 122.932 128.047C123.157 127.782 123.326 127.525 123.439 127.276C123.552 127.028 123.608 126.763 123.608 126.481C123.609 126.159 123.536 125.884 123.39 125.656C123.244 125.423 123.044 125.244 122.789 125.118C122.533 124.992 122.243 124.929 121.919 124.929C121.584 124.929 121.29 124.999 121.039 125.138C120.787 125.274 120.591 125.467 120.452 125.719C120.316 125.971 120.248 126.271 120.248 126.619L118.493 126.619C118.493 125.972 118.64 125.411 118.936 124.933C119.231 124.456 119.637 124.087 120.154 123.825C120.674 123.563 121.271 123.433 121.944 123.433C122.627 123.433 123.226 123.561 123.743 123.816C124.26 124.071 124.661 124.421 124.946 124.865C125.234 125.31 125.379 125.817 125.378 126.387C125.378 126.768 125.305 127.143 125.159 127.51C125.013 127.878 124.756 128.286 124.388 128.733C124.024 129.181 123.511 129.722 122.852 130.358L121.096 132.143L121.096 132.212L125.531 132.214L125.53 133.755L118.55 133.753ZM132.69 131.848L132.69 131.311C132.69 130.916 132.773 130.553 132.939 130.222C133.108 129.891 133.354 129.624 133.675 129.422C133.997 129.22 134.386 129.119 134.844 129.119C135.314 129.119 135.709 129.22 136.027 129.422C136.345 129.621 136.585 129.887 136.747 130.218C136.913 130.55 136.996 130.914 136.996 131.312L136.995 131.849C136.995 132.243 136.912 132.606 136.747 132.938C136.581 133.269 136.337 133.536 136.016 133.738C135.697 133.94 135.306 134.041 134.842 134.041C134.378 134.041 133.985 133.939 133.664 133.737C133.343 133.535 133.099 133.268 132.933 132.937C132.771 132.605 132.69 132.242 132.69 131.848ZM133.988 131.311L133.988 131.848C133.988 132.11 134.05 132.35 134.176 132.569C134.302 132.788 134.524 132.897 134.842 132.897C135.164 132.897 135.384 132.79 135.504 132.574C135.626 132.356 135.688 132.114 135.688 131.849L135.688 131.312C135.688 131.046 135.63 130.804 135.514 130.586C135.398 130.364 135.175 130.253 134.843 130.252C134.532 130.252 134.311 130.363 134.182 130.585C134.053 130.804 133.988 131.046 133.988 131.311ZM127.516 126.02L127.516 125.483C127.517 125.085 127.601 124.72 127.77 124.389C127.939 124.058 128.185 123.792 128.506 123.594C128.828 123.392 129.217 123.291 129.675 123.291C130.142 123.291 130.535 123.392 130.853 123.594C131.174 123.793 131.416 124.059 131.578 124.39C131.741 124.721 131.822 125.086 131.822 125.484L131.822 126.021C131.822 126.418 131.739 126.783 131.573 127.114C131.41 127.443 131.168 127.706 130.847 127.905C130.525 128.103 130.134 128.203 129.673 128.203C129.206 128.203 128.812 128.103 128.49 127.904C128.172 127.705 127.93 127.44 127.765 127.108C127.599 126.777 127.516 126.414 127.516 126.02ZM128.824 125.483L128.824 126.02C128.824 126.285 128.885 126.527 129.008 126.746C129.133 126.961 129.355 127.069 129.674 127.069C129.992 127.069 130.211 126.962 130.33 126.746C130.453 126.527 130.514 126.286 130.514 126.02L130.514 125.483C130.514 125.218 130.456 124.976 130.34 124.758C130.225 124.535 130.002 124.424 129.674 124.424C129.36 124.424 129.139 124.535 129.013 124.757C128.887 124.979 128.824 125.221 128.824 125.483ZM128.081 133.756L135.084 123.576L136.327 123.576L129.324 133.756L128.081 133.756Z" fill="#60D39C"/>
<g clip-path="url(#clip0_1_2623)">
<path d="M90.7993 127.995L94.5503 124.246L98.2993 127.997" stroke="#60D39C" stroke-width="2" stroke-linecap="round" stroke-linejoin="round"/>
<path d="M94.5478 133.246L94.5503 124.246" stroke="#60D39C" stroke-width="2" stroke-linecap="round"/>
</g>
<path d="M95.2218 68.3639C95.1755 67.9297 94.9801 67.5916 94.6355 67.3495C94.2941 67.1075 93.85 66.9864 93.3032 66.9862C92.9187 66.9861 92.5889 67.044 92.3138 67.16C92.0386 67.2759 91.8281 67.4333 91.6822 67.6321C91.5364 67.8309 91.4617 68.0579 91.4583 68.3131C91.4583 68.5253 91.5063 68.7092 91.6024 68.865C91.7018 69.0208 91.8359 69.1534 92.005 69.2629C92.174 69.369 92.3612 69.4585 92.5667 69.5315C92.7721 69.6045 92.9793 69.6658 93.1881 69.7156L94.1425 69.9545C94.527 70.0441 94.8965 70.1652 95.2511 70.3177C95.609 70.4703 95.9288 70.6626 96.2105 70.8947C96.4954 71.1268 96.7207 71.4069 96.8864 71.7351C97.052 72.0633 97.1348 72.4478 97.1346 72.8886C97.1345 73.4852 96.9819 74.0105 96.6768 74.4644C96.3718 74.9151 95.9308 75.268 95.3541 75.523C94.7806 75.7748 94.0862 75.9005 93.2709 75.9003C92.4787 75.9001 91.791 75.7772 91.2078 75.5318C90.6278 75.2864 90.1738 74.9283 89.8458 74.4576C89.5212 73.9869 89.3457 73.4134 89.3193 72.7373L91.134 72.7378C91.1604 73.0924 91.2697 73.3874 91.4618 73.6228C91.654 73.8582 91.9042 74.0339 92.2124 74.15C92.5239 74.2661 92.8719 74.3242 93.2564 74.3243C93.6574 74.3244 94.0088 74.2648 94.3104 74.1456C94.6154 74.0231 94.8541 73.8541 95.0265 73.6387C95.1989 73.42 95.2868 73.1648 95.2902 72.8731C95.2869 72.608 95.2091 72.3892 95.0567 72.2168C94.9043 72.0411 94.6905 71.8952 94.4155 71.7792C94.1437 71.6598 93.8256 71.5536 93.461 71.4607L92.3027 71.1621C91.4642 70.9464 90.8015 70.6198 90.3144 70.1821C89.8306 69.7412 89.5888 69.1561 89.589 68.427C89.5892 67.8271 89.7517 67.3018 90.0766 66.8511C90.4049 66.4004 90.8508 66.0509 91.4143 65.8025C91.9778 65.5507 92.6159 65.425 93.3285 65.4252C94.051 65.4254 94.684 65.5515 95.2275 65.8035C95.7743 66.0523 96.2034 66.3987 96.5149 66.8429C96.8263 67.2838 96.9869 67.791 96.9967 68.3644L95.2218 68.3639ZM100.896 75.9024C100.412 75.9023 99.9763 75.816 99.5886 75.6435C99.2042 75.4677 98.8993 75.2091 98.674 74.8677C98.4521 74.5262 98.3411 74.1053 98.3413 73.6048C98.3414 73.1739 98.4211 72.8177 98.5802 72.536C98.7394 72.2543 98.9565 72.029 99.2317 71.86C99.5068 71.6911 99.8168 71.5636 100.161 71.4775C100.51 71.3881 100.869 71.3236 101.24 71.2839C101.688 71.2376 102.051 71.1963 102.329 71.1599C102.608 71.1202 102.81 71.0606 102.936 70.9811C103.065 70.8983 103.13 70.7707 103.13 70.5983L103.13 70.5685C103.13 70.194 103.019 69.9039 102.797 69.6984C102.575 69.4928 102.255 69.39 101.837 69.3899C101.397 69.3898 101.047 69.4858 100.788 69.6779C100.533 69.8701 100.361 70.0971 100.271 70.3589L98.5908 70.1198C98.7235 69.6558 98.9424 69.2681 99.2474 68.9566C99.5524 68.6418 99.9253 68.4066 100.366 68.251C100.807 68.092 101.294 68.0126 101.828 68.0127C102.196 68.0128 102.562 68.056 102.927 68.1423C103.291 68.2286 103.624 68.3712 103.926 68.5701C104.227 68.7658 104.469 69.0326 104.651 69.3708C104.837 69.7089 104.93 70.1315 104.929 70.6386L104.928 75.7494L103.198 75.7489L103.198 74.6999L103.139 74.6999C103.029 74.912 102.875 75.1108 102.676 75.2964C102.48 75.4786 102.233 75.626 101.935 75.7386C101.64 75.8479 101.294 75.9025 100.896 75.9024ZM101.364 74.5801C101.725 74.5802 102.038 74.509 102.303 74.3666C102.569 74.2208 102.773 74.0286 102.915 73.79C103.061 73.5514 103.134 73.2913 103.134 73.0095L103.134 72.1097C103.078 72.1561 102.982 72.1991 102.846 72.2389C102.713 72.2786 102.564 72.3134 102.398 72.3432C102.233 72.3729 102.069 72.3994 101.906 72.4226C101.744 72.4457 101.603 72.4656 101.484 72.4821C101.215 72.5185 100.975 72.5781 100.763 72.6609C100.551 72.7437 100.383 72.8596 100.26 73.0088C100.138 73.1546 100.076 73.3435 100.076 73.5755C100.076 73.9069 100.197 74.1572 100.439 74.3263C100.681 74.4954 100.989 74.58 101.364 74.5801ZM108.54 65.5686L108.537 75.7504L106.738 75.7499L106.741 65.5681L108.54 65.5686ZM113.769 75.901C113.003 75.9008 112.342 75.7415 111.785 75.4232C111.232 75.1015 110.806 74.6473 110.508 74.0606C110.21 73.4705 110.061 72.7761 110.061 71.9774C110.061 71.1919 110.211 70.5025 110.509 69.9093C110.811 69.3128 111.232 68.8489 111.772 68.5176C112.313 68.183 112.947 68.0158 113.676 68.016C114.147 68.0161 114.591 68.0925 115.009 68.2451C115.43 68.3943 115.801 68.6264 116.122 68.9414C116.447 69.2564 116.702 69.6575 116.888 70.1447C117.073 70.6287 117.166 71.2054 117.165 71.8749L117.165 72.4268L110.906 72.425L110.906 71.212L115.44 71.2132C115.437 70.8685 115.363 70.5619 115.217 70.2934C115.071 70.0216 114.867 69.8078 114.606 69.6519C114.347 69.4961 114.046 69.4181 113.701 69.418C113.333 69.4179 113.01 69.5073 112.731 69.6862C112.453 69.8618 112.236 70.0937 112.08 70.382C111.927 70.667 111.849 70.9802 111.846 71.3216L111.846 72.3806C111.846 72.8247 111.927 73.2059 112.089 73.5241C112.251 73.839 112.478 74.081 112.77 74.2501C113.062 74.4159 113.403 74.4989 113.794 74.499C114.056 74.4991 114.293 74.4627 114.505 74.3898C114.717 74.3136 114.901 74.2027 115.057 74.0569C115.213 73.9111 115.33 73.7305 115.41 73.5151L117.09 73.7045C116.984 74.1486 116.782 74.5363 116.484 74.8676C116.188 75.1957 115.811 75.4508 115.35 75.6329C114.889 75.8118 114.362 75.9011 113.769 75.901ZM124.724 70.137L123.083 70.3155C123.037 70.1497 122.956 69.994 122.84 69.8481C122.727 69.7022 122.575 69.5845 122.383 69.495C122.19 69.4054 121.955 69.3606 121.677 69.3605C121.302 69.3604 120.987 69.4416 120.732 69.6039C120.48 69.7662 120.356 69.9767 120.359 70.2352C120.356 70.4572 120.437 70.6379 120.602 70.7772C120.771 70.9164 121.05 71.0308 121.437 71.1204L122.74 71.3992C123.462 71.5552 123.999 71.8022 124.351 72.1404C124.705 72.4786 124.884 72.9211 124.887 73.468C124.884 73.9486 124.743 74.3728 124.464 74.7406C124.189 75.1051 123.806 75.39 123.316 75.5954C122.825 75.8007 122.261 75.9033 121.625 75.9031C120.69 75.9029 119.938 75.7071 119.368 75.3159C118.798 74.9213 118.459 74.3727 118.349 73.67L120.104 73.5014C120.184 73.8462 120.353 74.1064 120.611 74.2821C120.87 74.4579 121.206 74.5458 121.621 74.5459C122.048 74.546 122.391 74.4583 122.65 74.2827C122.912 74.1071 123.043 73.89 123.043 73.6315C123.043 73.4128 122.958 73.2321 122.789 73.0895C122.624 72.947 122.365 72.8375 122.014 72.7612L120.711 72.4874C119.979 72.3347 119.437 72.0777 119.086 71.7164C118.735 71.3517 118.561 70.8909 118.564 70.3341C118.561 69.8635 118.689 69.4558 118.947 69.1112C119.209 68.7633 119.572 68.4949 120.036 68.3061C120.504 68.114 121.042 68.018 121.652 68.0182C122.547 68.0185 123.251 68.2092 123.765 68.5905C124.282 68.9718 124.602 69.4873 124.724 70.137Z" fill="#5C616F"/>
<path d="M315.665 106.626L315.67 88.4439L316.835 88.4443L316.83 106.626L315.665 106.626ZM318.758 94.4462C318.701 93.8733 318.457 93.4281 318.026 93.1108C317.596 92.7934 317.011 92.6347 316.272 92.6345C315.77 92.6343 315.347 92.7052 315.001 92.8472C314.655 92.9844 314.39 93.1761 314.205 93.4222C314.025 93.6684 313.935 93.9477 313.935 94.2602C313.926 94.5206 313.98 94.7479 314.098 94.9421C314.221 95.1363 314.39 95.3044 314.603 95.4465C314.816 95.5839 315.062 95.7047 315.341 95.8089C315.62 95.9084 315.919 95.9937 316.236 96.0648L317.543 96.3777C318.177 96.5199 318.759 96.7095 319.29 96.9464C319.82 97.1833 320.279 97.4746 320.667 97.8203C321.055 98.1661 321.356 98.5734 321.569 99.0422C321.787 99.511 321.898 100.048 321.902 100.654C321.897 101.545 321.67 102.316 321.22 102.97C320.775 103.618 320.13 104.122 319.288 104.482C318.449 104.837 317.438 105.014 316.255 105.014C315.08 105.013 314.058 104.833 313.187 104.473C312.32 104.113 311.643 103.58 311.156 102.875C310.673 102.164 310.42 101.286 310.397 100.239L313.373 100.24C313.406 100.728 313.545 101.135 313.791 101.462C314.042 101.784 314.376 102.028 314.792 102.194C315.214 102.355 315.69 102.435 316.22 102.436C316.741 102.436 317.193 102.36 317.577 102.209C317.965 102.057 318.266 101.847 318.479 101.577C318.692 101.307 318.798 100.997 318.799 100.647C318.799 100.32 318.702 100.045 318.508 99.8226C318.318 99.6 318.039 99.4105 317.67 99.2542C317.305 99.0978 316.858 98.9556 316.327 98.8277L314.744 98.4295C313.518 98.1309 312.549 97.6642 311.839 97.0295C311.129 96.3949 310.777 95.5401 310.782 94.4653C310.777 93.5846 311.012 92.8153 311.486 92.1573C311.964 91.4993 312.62 90.9857 313.453 90.6166C314.287 90.2475 315.234 90.0631 316.294 90.0634C317.374 90.0637 318.316 90.2487 319.121 90.6182C319.93 90.9877 320.56 91.5016 321.01 92.1599C321.459 92.8182 321.691 93.5806 321.705 94.447L318.758 94.4462ZM323.884 104.81L323.885 102.594L329.064 97.8013C329.504 97.3753 329.874 96.9919 330.172 96.6511C330.475 96.3102 330.705 95.9765 330.861 95.6498C331.018 95.3184 331.096 94.961 331.096 94.5775C331.096 94.1513 330.999 93.7844 330.805 93.4765C330.611 93.164 330.346 92.9248 330.01 92.759C329.674 92.5884 329.293 92.5031 328.866 92.503C328.421 92.5029 328.033 92.5927 327.702 92.7726C327.37 92.9524 327.114 93.2104 326.934 93.5465C326.754 93.8826 326.664 94.2827 326.664 94.7467L323.745 94.7459C323.745 93.7942 323.961 92.968 324.392 92.2674C324.823 91.5667 325.427 91.0248 326.204 90.6415C326.98 90.2581 327.875 90.0666 328.888 90.0669C329.93 90.0672 330.837 90.2521 331.608 90.6216C332.385 90.9864 332.988 91.4932 333.419 92.142C333.85 92.7908 334.065 93.5343 334.065 94.3723C334.065 94.9216 333.956 95.4637 333.738 95.9987C333.524 96.5336 333.143 97.1277 332.594 97.781C332.044 98.4295 331.27 99.2082 330.271 100.117L328.146 102.197L328.146 102.297L334.254 102.299L334.254 104.813L323.884 104.81ZM341.749 90.0705C342.497 90.0707 343.217 90.1963 343.908 90.4475C344.604 90.6986 345.224 91.0989 345.768 91.6483C346.317 92.1977 346.75 92.927 347.067 93.8361C347.389 94.7406 347.552 95.8509 347.557 97.1672C347.556 98.403 347.416 99.5062 347.137 100.477C346.862 101.443 346.466 102.264 345.95 102.941C345.434 103.618 344.811 104.134 344.082 104.489C343.352 104.839 342.538 105.014 341.638 105.014C340.668 105.013 339.811 104.826 339.067 104.452C338.324 104.073 337.725 103.559 337.271 102.91C336.821 102.257 336.549 101.523 336.455 100.708L339.487 100.709C339.606 101.239 339.854 101.651 340.233 101.945C340.612 102.234 341.08 102.379 341.639 102.379C342.586 102.379 343.306 101.967 343.798 101.143C344.291 100.315 344.54 99.1811 344.545 97.7417L344.446 97.7417C344.228 98.1677 343.934 98.5346 343.565 98.8423C343.195 99.1452 342.771 99.3795 342.293 99.545C341.82 99.7106 341.315 99.7934 340.78 99.7932C339.923 99.793 339.159 99.5915 338.486 99.1889C337.814 98.7862 337.284 98.2321 336.896 97.5265C336.508 96.8209 336.314 96.0159 336.314 95.1116C336.31 94.1362 336.535 93.2674 336.99 92.5052C337.444 91.743 338.079 91.1466 338.894 90.716C339.713 90.2806 340.665 90.0654 341.749 90.0705ZM341.77 92.4852C341.291 92.4851 340.865 92.5986 340.491 92.8258C340.122 93.053 339.828 93.3583 339.61 93.7417C339.397 94.1252 339.293 94.5537 339.297 95.0272C339.297 95.5054 339.401 95.9363 339.609 96.3199C339.822 96.6987 340.111 97.0018 340.476 97.2292C340.845 97.4518 341.266 97.5632 341.74 97.5634C342.095 97.5635 342.424 97.4973 342.727 97.3648C343.03 97.2323 343.293 97.0501 343.516 96.8181C343.743 96.5814 343.92 96.3092 344.048 96.0015C344.176 95.6938 344.24 95.3671 344.24 95.0214C344.236 94.5622 344.127 94.1407 343.914 93.7571C343.701 93.3736 343.408 93.0657 343.034 92.8336C342.66 92.6015 342.238 92.4854 341.77 92.4852ZM352.417 102.829L352.338 103.61C352.276 104.235 352.158 104.858 351.983 105.478C351.812 106.103 351.632 106.669 351.442 107.175C351.258 107.682 351.108 108.08 350.995 108.368L349.034 108.368C349.105 108.089 349.203 107.698 349.326 107.196C349.449 106.699 349.565 106.14 349.674 105.52C349.783 104.9 349.852 104.268 349.881 103.624L349.917 102.828L352.417 102.829ZM359.67 90.2743L359.666 104.82L356.59 104.819L356.594 93.1925L356.508 93.1924L353.177 95.2796L353.178 92.5523L356.779 90.2735L359.67 90.2743ZM363.123 104.821L363.123 102.605L368.302 97.8122C368.743 97.3862 369.112 97.0027 369.41 96.6619C369.714 96.3211 369.943 95.9873 370.1 95.6607C370.256 95.3293 370.334 94.9718 370.334 94.5883C370.334 94.1622 370.237 93.7952 370.043 93.4874C369.849 93.1748 369.584 92.9356 369.248 92.7698C368.912 92.5993 368.531 92.5139 368.105 92.5138C367.66 92.5137 367.271 92.6036 366.94 92.7834C366.608 92.9632 366.353 93.2212 366.173 93.5573C365.993 93.8934 365.903 94.2935 365.902 94.7575L362.983 94.7567C362.984 93.805 363.199 92.9788 363.63 92.2782C364.061 91.5776 364.665 91.0356 365.442 90.6523C366.219 90.269 367.113 90.0775 368.127 90.0777C369.168 90.078 370.075 90.2629 370.847 90.6325C371.623 90.9973 372.227 91.5041 372.657 92.1529C373.088 92.8017 373.303 93.5451 373.303 94.3832C373.303 94.9324 373.194 95.4745 372.976 96.0095C372.763 96.5445 372.381 97.1386 371.832 97.7918C371.283 98.4404 370.508 99.219 369.509 100.128L367.385 102.208L367.385 102.308L373.493 102.309L373.492 104.824L363.123 104.821ZM381.146 105.025C380.053 105.024 379.08 104.846 378.228 104.491C377.38 104.131 376.715 103.641 376.232 103.02C375.749 102.4 375.508 101.697 375.508 100.911C375.509 100.305 375.646 99.7484 375.921 99.2418C376.2 98.7305 376.579 98.3069 377.057 97.9708C377.536 97.6301 378.071 97.4124 378.663 97.3179L378.663 97.2184C377.886 97.062 377.257 96.6854 376.774 96.0887C376.291 95.4872 376.05 94.7887 376.05 93.9933C376.05 93.2404 376.271 92.5705 376.711 91.9835C377.152 91.3918 377.755 90.9279 378.523 90.592C379.294 90.2513 380.17 90.0811 381.151 90.0813C382.131 90.0816 383.004 90.2523 383.771 90.5934C384.543 90.9346 385.149 91.4011 385.589 91.9931C386.029 92.5803 386.251 93.248 386.256 93.9961C386.251 94.7963 386.005 95.4946 385.517 96.0911C385.029 96.6875 384.404 97.0638 383.641 97.2198L383.641 97.3192C384.224 97.4141 384.752 97.6321 385.225 97.9731C385.703 98.3094 386.082 98.7333 386.361 99.2447C386.645 99.7514 386.789 100.308 386.794 100.914C386.789 101.7 386.545 102.403 386.062 103.023C385.579 103.643 384.911 104.133 384.058 104.493C383.211 104.848 382.24 105.025 381.146 105.025ZM381.147 102.766C381.635 102.766 382.061 102.679 382.426 102.504C382.79 102.324 383.074 102.078 383.278 101.765C383.486 101.448 383.591 101.083 383.591 100.672C383.591 100.25 383.484 99.8784 383.271 99.5564C383.059 99.2296 382.77 98.9738 382.405 98.7891C382.041 98.5996 381.622 98.5048 381.148 98.5046C380.679 98.5045 380.26 98.5991 379.891 98.7884C379.522 98.9729 379.23 99.2285 379.017 99.5552C378.809 99.8771 378.705 100.249 378.704 100.67C378.704 101.082 378.806 101.447 379.01 101.764C379.213 102.077 379.499 102.323 379.869 102.503C380.238 102.678 380.664 102.766 381.147 102.766ZM381.149 96.2674C381.556 96.2675 381.918 96.1848 382.236 96.0191C382.553 95.8535 382.801 95.6239 382.981 95.3304C383.161 95.0369 383.252 94.6984 383.252 94.3149C383.252 93.9361 383.162 93.6046 382.982 93.3205C382.802 93.0316 382.556 92.8066 382.244 92.6456C381.931 92.4798 381.567 92.3968 381.15 92.3967C380.738 92.3966 380.373 92.4793 380.056 92.645C379.739 92.8059 379.49 93.0307 379.31 93.3195C379.135 93.6035 379.047 93.9349 379.047 94.3137C379.047 94.6972 379.137 95.0358 379.317 95.3294C379.497 95.623 379.745 95.8527 380.062 96.0185C380.379 96.1843 380.742 96.2673 381.149 96.2674Z" fill="white"/>
<path d="M370.069 126.186L370.068 127.18L365.952 127.179L365.952 126.185L370.069 126.186ZM367.183 133.822L367.185 125.131C367.185 124.694 367.288 124.329 367.494 124.038C367.699 123.746 367.966 123.527 368.294 123.382C368.623 123.236 368.969 123.163 369.334 123.163C369.622 123.163 369.857 123.187 370.04 123.233C370.222 123.279 370.358 123.323 370.447 123.362L370.109 124.377C370.049 124.357 369.966 124.332 369.86 124.302C369.758 124.272 369.622 124.257 369.453 124.257C369.065 124.257 368.785 124.355 368.612 124.55C368.443 124.746 368.359 125.032 368.359 125.41L368.356 133.822L367.183 133.822ZM371.211 133.823L371.213 126.186L372.346 126.187L372.346 127.34L372.426 127.34C372.565 126.962 372.817 126.656 373.182 126.421C373.546 126.185 373.957 126.068 374.415 126.068C374.501 126.068 374.609 126.07 374.738 126.073C374.867 126.076 374.965 126.081 375.031 126.088L375.031 127.281C374.991 127.271 374.9 127.256 374.757 127.236C374.618 127.213 374.471 127.202 374.315 127.202C373.944 127.201 373.612 127.279 373.321 127.435C373.032 127.587 372.803 127.799 372.634 128.071C372.468 128.34 372.386 128.646 372.385 128.991L372.384 133.823L371.211 133.823ZM378.79 133.984C378.1 133.984 377.495 133.82 376.975 133.491C376.458 133.163 376.054 132.704 375.762 132.114C375.474 131.524 375.33 130.834 375.33 130.046C375.331 129.25 375.475 128.556 375.764 127.963C376.055 127.369 376.46 126.909 376.977 126.581C377.497 126.253 378.102 126.089 378.792 126.089C379.481 126.089 380.084 126.254 380.601 126.582C381.122 126.91 381.526 127.371 381.814 127.964C382.105 128.558 382.251 129.252 382.251 130.047C382.251 130.836 382.105 131.526 381.813 132.116C381.524 132.705 381.12 133.164 380.599 133.492C380.082 133.82 379.479 133.984 378.79 133.984ZM378.79 132.93C379.314 132.93 379.744 132.796 380.083 132.528C380.421 132.259 380.671 131.906 380.834 131.469C380.996 131.032 381.077 130.558 381.078 130.047C381.078 129.537 380.997 129.061 380.834 128.62C380.672 128.179 380.422 127.823 380.084 127.551C379.746 127.279 379.315 127.143 378.791 127.143C378.268 127.143 377.837 127.279 377.499 127.55C377.161 127.822 376.91 128.178 376.748 128.619C376.585 129.06 376.504 129.535 376.504 130.046C376.504 130.556 376.585 131.03 376.747 131.468C376.909 131.905 377.159 132.258 377.497 132.527C377.835 132.796 378.266 132.93 378.79 132.93ZM383.541 133.826L383.543 126.19L384.677 126.19L384.676 127.383L384.776 127.383C384.935 126.976 385.192 126.659 385.546 126.434C385.901 126.205 386.327 126.091 386.824 126.091C387.328 126.091 387.747 126.206 388.082 126.435C388.42 126.66 388.683 126.977 388.872 127.385L388.952 127.385C389.147 126.99 389.441 126.677 389.832 126.445C390.223 126.21 390.692 126.092 391.239 126.093C391.922 126.093 392.48 126.307 392.914 126.734C393.348 127.159 393.565 127.82 393.565 128.718L393.564 133.829L392.39 133.829L392.392 128.718C392.392 128.154 392.238 127.752 391.93 127.51C391.622 127.268 391.259 127.147 390.841 127.146C390.304 127.146 389.888 127.309 389.593 127.633C389.298 127.955 389.15 128.362 389.15 128.856L389.149 133.828L387.956 133.827L387.957 128.597C387.957 128.163 387.816 127.813 387.535 127.548C387.253 127.28 386.89 127.145 386.446 127.145C386.141 127.145 385.856 127.226 385.591 127.389C385.329 127.551 385.117 127.776 384.954 128.065C384.795 128.35 384.716 128.679 384.715 129.054L384.714 133.827L383.541 133.826ZM399.822 123.649L399.82 133.831L398.646 133.83L398.649 123.649L399.822 123.649ZM403.716 134.011C403.232 134.011 402.793 133.919 402.398 133.737C402.004 133.551 401.691 133.284 401.459 132.936C401.227 132.585 401.111 132.161 401.111 131.663C401.111 131.226 401.198 130.871 401.37 130.6C401.542 130.325 401.773 130.109 402.061 129.954C402.35 129.798 402.668 129.682 403.016 129.606C403.367 129.526 403.72 129.463 404.075 129.417C404.539 129.358 404.915 129.313 405.204 129.283C405.495 129.25 405.707 129.196 405.84 129.119C405.976 129.043 406.044 128.911 406.044 128.722L406.044 128.682C406.044 128.191 405.91 127.81 405.642 127.538C405.376 127.266 404.974 127.13 404.434 127.13C403.873 127.13 403.434 127.253 403.116 127.498C402.798 127.743 402.574 128.005 402.445 128.283L401.331 127.885C401.53 127.421 401.795 127.06 402.127 126.802C402.462 126.54 402.826 126.358 403.221 126.255C403.618 126.149 404.01 126.096 404.394 126.096C404.639 126.096 404.921 126.126 405.239 126.186C405.561 126.242 405.871 126.36 406.169 126.539C406.47 126.718 406.721 126.988 406.919 127.35C407.118 127.711 407.217 128.195 407.217 128.802L407.216 133.833L406.042 133.832L406.043 132.798L405.983 132.798C405.904 132.964 405.771 133.141 405.585 133.33C405.4 133.519 405.153 133.68 404.844 133.812C404.536 133.945 404.16 134.011 403.716 134.011ZM403.895 132.957C404.359 132.957 404.75 132.866 405.068 132.684C405.39 132.502 405.632 132.266 405.794 131.978C405.96 131.69 406.043 131.386 406.043 131.068L406.044 129.994C405.994 130.054 405.884 130.109 405.715 130.158C405.55 130.205 405.357 130.246 405.139 130.282C404.923 130.316 404.713 130.345 404.507 130.372C404.305 130.395 404.141 130.415 404.015 130.431C403.71 130.471 403.425 130.536 403.16 130.625C402.898 130.711 402.686 130.842 402.523 131.018C402.364 131.19 402.285 131.425 402.285 131.723C402.284 132.131 402.435 132.439 402.737 132.648C403.042 132.854 403.428 132.957 403.895 132.957ZM414.268 127.909L413.214 128.207C413.148 128.031 413.05 127.86 412.921 127.694C412.795 127.525 412.623 127.386 412.404 127.277C412.185 127.167 411.905 127.112 411.564 127.112C411.096 127.112 410.707 127.22 410.395 127.435C410.087 127.647 409.933 127.917 409.933 128.245C409.933 128.537 410.039 128.768 410.251 128.937C410.463 129.106 410.794 129.247 411.245 129.359L412.378 129.638C413.061 129.804 413.57 130.058 413.904 130.399C414.239 130.737 414.406 131.173 414.406 131.707C414.406 132.144 414.28 132.535 414.028 132.88C413.779 133.225 413.431 133.496 412.984 133.695C412.536 133.894 412.016 133.993 411.423 133.993C410.644 133.993 409.999 133.824 409.489 133.485C408.978 133.147 408.655 132.653 408.52 132.004L409.633 131.725C409.739 132.137 409.94 132.445 410.235 132.65C410.533 132.856 410.922 132.959 411.403 132.959C411.95 132.959 412.384 132.843 412.706 132.611C413.031 132.376 413.193 132.094 413.193 131.766C413.193 131.501 413.1 131.279 412.915 131.1C412.729 130.918 412.444 130.782 412.06 130.692L410.787 130.393C410.088 130.228 409.574 129.971 409.246 129.622C408.922 129.271 408.759 128.832 408.759 128.305C408.759 127.874 408.881 127.493 409.123 127.161C409.368 126.83 409.701 126.57 410.122 126.381C410.546 126.192 411.027 126.098 411.564 126.098C412.32 126.098 412.913 126.264 413.344 126.596C413.778 126.927 414.086 127.365 414.268 127.909ZM418.995 126.2L418.995 127.194L415.037 127.193L415.037 126.199L418.995 126.2ZM416.191 124.369L417.365 124.37L417.363 131.648C417.363 131.98 417.411 132.228 417.507 132.394C417.606 132.556 417.732 132.666 417.884 132.722C418.04 132.775 418.204 132.802 418.377 132.802C418.506 132.802 418.612 132.795 418.695 132.782C418.778 132.765 418.844 132.752 418.894 132.742L419.132 133.796C419.052 133.826 418.941 133.856 418.799 133.886C418.656 133.919 418.476 133.935 418.257 133.935C417.925 133.935 417.601 133.864 417.283 133.721C416.968 133.579 416.706 133.361 416.497 133.07C416.292 132.778 416.189 132.41 416.189 131.966L416.191 124.369ZM424.45 136.701C424.251 136.701 424.074 136.684 423.918 136.651C423.762 136.621 423.655 136.592 423.595 136.562L423.894 135.528C424.179 135.601 424.43 135.627 424.649 135.607C424.868 135.588 425.062 135.49 425.231 135.314C425.403 135.142 425.561 134.862 425.704 134.474L425.922 133.878L423.101 126.201L424.373 126.201L426.48 132.287L426.559 132.287L428.669 126.202L429.942 126.203L426.698 134.952C426.552 135.346 426.371 135.673 426.156 135.931C425.94 136.193 425.69 136.387 425.405 136.513C425.123 136.638 424.805 136.701 424.45 136.701ZM433.916 133.999C433.181 133.999 432.546 133.836 432.012 133.512C431.482 133.183 431.073 132.726 430.785 132.139C430.5 131.549 430.358 130.863 430.358 130.081C430.358 129.298 430.501 128.609 430.786 128.013C431.074 127.413 431.476 126.946 431.989 126.611C432.507 126.273 433.11 126.104 433.799 126.104C434.197 126.104 434.59 126.171 434.977 126.304C435.365 126.436 435.718 126.652 436.036 126.95C436.354 127.245 436.608 127.636 436.797 128.124C436.985 128.611 437.08 129.211 437.079 129.923L437.079 130.421L431.193 130.419L431.193 129.405L435.886 129.406C435.887 128.975 435.8 128.591 435.628 128.253C435.459 127.914 435.217 127.648 434.903 127.452C434.591 127.256 434.223 127.158 433.799 127.158C433.332 127.158 432.927 127.274 432.586 127.506C432.248 127.735 431.987 128.033 431.805 128.401C431.623 128.768 431.531 129.163 431.531 129.584L431.531 130.26C431.531 130.837 431.63 131.326 431.829 131.727C432.031 132.124 432.311 132.428 432.669 132.637C433.027 132.842 433.443 132.945 433.917 132.945C434.225 132.945 434.503 132.902 434.752 132.816C435.004 132.727 435.221 132.594 435.403 132.419C435.586 132.24 435.727 132.018 435.826 131.753L436.96 132.071C436.84 132.456 436.639 132.794 436.358 133.085C436.076 133.373 435.728 133.599 435.313 133.761C434.899 133.92 434.433 133.999 433.916 133.999ZM440.61 134.021C440.126 134.021 439.687 133.93 439.293 133.747C438.898 133.561 438.585 133.295 438.353 132.946C438.122 132.595 438.006 132.171 438.006 131.674C438.006 131.236 438.092 130.882 438.265 130.61C438.437 130.335 438.667 130.119 438.956 129.964C439.244 129.808 439.562 129.692 439.91 129.616C440.262 129.537 440.615 129.474 440.969 129.427C441.434 129.368 441.81 129.323 442.098 129.293C442.39 129.26 442.602 129.206 442.734 129.13C442.87 129.053 442.938 128.921 442.938 128.732L442.938 128.692C442.939 128.202 442.804 127.82 442.536 127.548C442.271 127.277 441.868 127.141 441.328 127.14C440.768 127.14 440.329 127.263 440.01 127.508C439.692 127.753 439.468 128.015 439.339 128.293L438.226 127.895C438.425 127.431 438.69 127.07 439.021 126.812C439.356 126.55 439.721 126.368 440.115 126.265C440.513 126.159 440.904 126.106 441.289 126.106C441.534 126.106 441.816 126.136 442.134 126.196C442.455 126.253 442.765 126.37 443.063 126.549C443.365 126.728 443.615 126.999 443.814 127.36C444.013 127.721 444.112 128.205 444.112 128.812L444.11 133.843L442.937 133.843L442.937 132.809L442.878 132.809C442.798 132.974 442.665 133.152 442.48 133.34C442.294 133.529 442.047 133.69 441.739 133.822C441.431 133.955 441.054 134.021 440.61 134.021ZM440.79 132.967C441.254 132.967 441.645 132.876 441.963 132.694C442.284 132.512 442.526 132.276 442.689 131.988C442.855 131.7 442.938 131.397 442.938 131.078L442.938 130.005C442.888 130.064 442.779 130.119 442.61 130.169C442.444 130.215 442.252 130.256 442.033 130.293C441.818 130.326 441.607 130.356 441.402 130.382C441.2 130.405 441.035 130.425 440.91 130.442C440.605 130.481 440.32 130.546 440.054 130.635C439.793 130.721 439.58 130.852 439.418 131.028C439.259 131.2 439.179 131.435 439.179 131.734C439.179 132.141 439.33 132.45 439.631 132.658C439.936 132.864 440.322 132.967 440.79 132.967ZM445.752 133.843L445.754 126.207L446.887 126.207L446.887 127.361L446.967 127.361C447.106 126.983 447.358 126.676 447.723 126.441C448.087 126.206 448.498 126.088 448.956 126.089C449.042 126.089 449.15 126.09 449.279 126.094C449.408 126.097 449.506 126.102 449.572 126.109L449.572 127.302C449.532 127.292 449.441 127.277 449.298 127.257C449.159 127.234 449.012 127.222 448.856 127.222C448.485 127.222 448.153 127.3 447.862 127.456C447.573 127.608 447.344 127.82 447.175 128.092C447.009 128.36 446.927 128.667 446.926 129.011L446.925 133.844L445.752 133.843Z" fill="#5C616E"/>
<path d="M331.989 123.63L331.986 133.812L330.141 133.811L330.144 125.424L330.084 125.424L327.702 126.945L327.703 125.255L330.234 123.63L331.989 123.63ZM335.139 133.922C334.837 133.922 334.579 133.816 334.364 133.604C334.148 133.392 334.042 133.133 334.046 132.828C334.042 132.53 334.149 132.275 334.364 132.063C334.58 131.851 334.838 131.745 335.14 131.745C335.431 131.745 335.685 131.851 335.9 132.063C336.119 132.275 336.23 132.53 336.233 132.829C336.23 133.031 336.177 133.215 336.074 133.381C335.974 133.546 335.842 133.679 335.676 133.778C335.514 133.874 335.335 133.922 335.139 133.922ZM338.071 133.814L338.071 132.481L341.607 129.017C341.945 128.676 342.227 128.373 342.453 128.107C342.678 127.842 342.847 127.586 342.96 127.337C343.073 127.088 343.129 126.823 343.129 126.542C343.129 126.22 343.056 125.945 342.911 125.716C342.765 125.484 342.564 125.305 342.309 125.179C342.054 125.053 341.764 124.99 341.439 124.99C341.105 124.99 340.811 125.059 340.559 125.199C340.307 125.334 340.112 125.528 339.972 125.78C339.837 126.032 339.768 126.332 339.768 126.68L338.013 126.679C338.014 126.033 338.161 125.471 338.456 124.994C338.751 124.517 339.158 124.147 339.675 123.886C340.195 123.624 340.792 123.493 341.465 123.494C342.147 123.494 342.747 123.621 343.264 123.877C343.781 124.132 344.182 124.482 344.467 124.926C344.755 125.37 344.899 125.878 344.899 126.448C344.899 126.829 344.826 127.203 344.68 127.571C344.534 127.939 344.277 128.347 343.909 128.794C343.544 129.241 343.032 129.783 342.372 130.419L340.617 132.204L340.617 132.273L345.052 132.274L345.051 133.816L338.071 133.814ZM352.211 131.908L352.211 131.371C352.211 130.977 352.294 130.614 352.46 130.283C352.629 129.951 352.874 129.685 353.196 129.483C353.517 129.28 353.907 129.179 354.364 129.18C354.835 129.18 355.229 129.281 355.547 129.483C355.866 129.682 356.106 129.947 356.268 130.279C356.434 130.61 356.516 130.975 356.516 131.373L356.516 131.91C356.516 132.304 356.433 132.667 356.267 132.998C356.102 133.33 355.858 133.596 355.536 133.799C355.218 134.001 354.827 134.102 354.363 134.101C353.899 134.101 353.506 134 353.185 133.798C352.863 133.596 352.62 133.329 352.454 132.997C352.292 132.666 352.211 132.303 352.211 131.908ZM353.509 131.372L353.508 131.909C353.508 132.171 353.571 132.411 353.697 132.63C353.823 132.849 354.045 132.958 354.363 132.958C354.685 132.958 354.905 132.85 355.025 132.635C355.147 132.416 355.209 132.174 355.209 131.909L355.209 131.372C355.209 131.107 355.151 130.865 355.035 130.646C354.919 130.424 354.695 130.313 354.364 130.313C354.052 130.313 353.832 130.424 353.703 130.646C353.573 130.865 353.509 131.107 353.509 131.372ZM347.037 126.08L347.037 125.543C347.037 125.146 347.122 124.781 347.291 124.45C347.46 124.118 347.705 123.853 348.027 123.654C348.349 123.452 348.738 123.351 349.195 123.351C349.663 123.352 350.055 123.453 350.374 123.655C350.695 123.854 350.937 124.119 351.099 124.451C351.262 124.782 351.343 125.147 351.343 125.545L351.342 126.081C351.342 126.479 351.259 126.844 351.094 127.175C350.931 127.503 350.689 127.767 350.367 127.965C350.046 128.164 349.655 128.264 349.194 128.263C348.727 128.263 348.332 128.164 348.011 127.965C347.693 127.766 347.451 127.501 347.285 127.169C347.12 126.838 347.037 126.475 347.037 126.08ZM348.345 125.544L348.345 126.081C348.344 126.346 348.406 126.588 348.528 126.807C348.654 127.022 348.876 127.13 349.194 127.13C349.513 127.13 349.731 127.022 349.851 126.807C349.973 126.588 350.035 126.346 350.035 126.081L350.035 125.544C350.035 125.279 349.977 125.037 349.861 124.818C349.745 124.596 349.523 124.485 349.195 124.485C348.88 124.485 348.66 124.596 348.534 124.818C348.408 125.04 348.345 125.282 348.345 125.544ZM347.602 133.816L354.604 123.636L355.847 123.637L348.845 133.817L347.602 133.816Z" fill="#E35454"/>
<g clip-path="url(#clip1_1_2623)">
<path d="M311.838 129.528L315.559 133.307L319.338 129.586" stroke="#E35454" stroke-width="2" stroke-linecap="round" stroke-linejoin="round"/>
<path d="M315.628 124.307L315.559 133.307" stroke="#E35454" stroke-width="2" stroke-linecap="round"/>
</g>
<path d="M310.615 65.6244L312.872 65.625L315.893 73.0037L316.012 73.0037L319.037 65.6267L321.294 65.6273L321.291 75.8091L319.521 75.8086L319.523 68.8136L319.429 68.8136L316.613 75.778L315.29 75.7776L312.478 68.7968L312.384 68.7967L312.382 75.8067L310.612 75.8062L310.615 65.6244ZM325.418 75.9644C324.934 75.9643 324.498 75.878 324.11 75.7055C323.726 75.5297 323.421 75.2711 323.196 74.9297C322.974 74.5882 322.863 74.1673 322.863 73.6668C322.863 73.2359 322.943 72.8797 323.102 72.598C323.261 72.3163 323.478 72.091 323.753 71.922C324.028 71.7531 324.338 71.6256 324.683 71.5395C325.031 71.4501 325.391 71.3855 325.762 71.3459C326.209 71.2996 326.572 71.2583 326.851 71.2219C327.129 71.1822 327.331 71.1226 327.457 71.0431C327.587 70.9603 327.651 70.8327 327.651 70.6603L327.651 70.6305C327.651 70.256 327.54 69.9659 327.318 69.7604C327.096 69.5548 326.777 69.452 326.359 69.4519C325.918 69.4517 325.568 69.5478 325.31 69.7399C325.055 69.9321 324.882 70.1591 324.793 70.4209L323.112 70.1818C323.245 69.7178 323.464 69.3301 323.769 69.0186C324.074 68.7038 324.447 68.4686 324.888 68.313C325.329 68.154 325.816 68.0746 326.349 68.0747C326.717 68.0748 327.084 68.118 327.448 68.2043C327.813 68.2906 328.146 68.4332 328.447 68.6321C328.749 68.8278 328.991 69.0946 329.173 69.4328C329.358 69.7709 329.451 70.1935 329.451 70.7006L329.45 75.8114L327.719 75.8109L327.72 74.7619L327.66 74.7619C327.551 74.974 327.396 75.1728 327.198 75.3583C327.002 75.5406 326.755 75.688 326.457 75.8006C326.162 75.9099 325.815 75.9645 325.418 75.9644ZM325.885 74.6421C326.246 74.6422 326.56 74.571 326.825 74.4286C327.09 74.2828 327.294 74.0906 327.437 73.852C327.582 73.6134 327.655 73.3533 327.656 73.0715L327.656 72.1717C327.599 72.2181 327.503 72.2611 327.367 72.3009C327.235 72.3406 327.086 72.3754 326.92 72.4051C326.754 72.4349 326.59 72.4614 326.428 72.4846C326.265 72.5077 326.124 72.5276 326.005 72.5441C325.737 72.5805 325.496 72.6401 325.284 72.7229C325.072 72.8057 324.905 72.9216 324.782 73.0707C324.659 73.2165 324.598 73.4055 324.598 73.6375C324.598 73.9689 324.719 74.2192 324.961 74.3883C325.202 74.5574 325.511 74.642 325.885 74.6421ZM331.259 75.8119L331.261 68.1755L333.006 68.176L333.006 69.4487L333.086 69.4488C333.225 69.008 333.464 68.6683 333.802 68.4298C334.143 68.1879 334.533 68.067 334.97 68.0672C335.07 68.0672 335.181 68.0722 335.303 68.0822C335.429 68.0888 335.534 68.1005 335.616 68.1171L335.616 69.7726C335.54 69.7461 335.419 69.7228 335.253 69.7029C335.091 69.6797 334.933 69.668 334.781 69.668C334.453 69.6679 334.158 69.7391 333.896 69.8815C333.637 70.0206 333.433 70.2145 333.284 70.463C333.135 70.7116 333.06 70.9982 333.06 71.323L333.059 75.8124L331.259 75.8119ZM338.451 73.4176L338.447 71.245L338.735 71.2451L341.48 68.1783L343.583 68.1789L340.207 71.9365L339.834 71.9364L338.451 73.4176ZM336.81 75.8134L336.813 65.6316L338.613 65.6321L338.61 75.8139L336.81 75.8134ZM341.603 75.8147L339.118 72.3389L340.331 71.0715L343.755 75.8153L341.603 75.8147ZM347.847 75.9656C347.081 75.9654 346.42 75.8061 345.863 75.4878C345.31 75.1661 344.884 74.712 344.586 74.1252C344.288 73.5352 344.139 72.8408 344.139 72.042C344.139 71.2565 344.289 70.5671 344.587 69.9739C344.889 69.3774 345.31 68.9135 345.85 68.5822C346.391 68.2476 347.025 68.0804 347.755 68.0806C348.225 68.0808 348.669 68.1571 349.087 68.3097C349.508 68.459 349.879 68.6911 350.2 69.006C350.525 69.321 350.78 69.7221 350.966 70.2094C351.151 70.6933 351.244 71.2701 351.244 71.9396L351.243 72.4914L344.984 72.4897L344.985 71.2766L349.519 71.2779C349.515 70.9332 349.441 70.6266 349.295 70.3581C349.149 70.0862 348.946 69.8724 348.684 69.7166C348.425 69.5607 348.124 69.4827 347.779 69.4826C347.411 69.4825 347.088 69.5719 346.81 69.7508C346.531 69.9264 346.314 70.1584 346.158 70.4467C346.006 70.7317 345.928 71.0449 345.924 71.3862L345.924 72.4452C345.924 72.8893 346.005 73.2705 346.167 73.5887C346.329 73.9036 346.556 74.1457 346.848 74.3148C347.14 74.4806 347.481 74.5635 347.872 74.5636C348.134 74.5637 348.371 74.5273 348.583 74.4545C348.795 74.3783 348.979 74.2673 349.135 74.1215C349.291 73.9757 349.409 73.7951 349.488 73.5797L351.168 73.7691C351.062 74.2132 350.86 74.6009 350.562 74.9323C350.267 75.2603 349.889 75.5154 349.428 75.6976C348.967 75.8764 348.44 75.9658 347.847 75.9656ZM356.58 68.1825L356.58 69.5746L352.19 69.5733L352.19 68.1813L356.58 68.1825ZM353.275 66.3521L355.074 66.3526L355.073 73.5216C355.072 73.7635 355.109 73.9492 355.182 74.0784C355.258 74.2044 355.357 74.2906 355.48 74.337C355.603 74.3835 355.738 74.4067 355.888 74.4068C356 74.4068 356.103 74.3985 356.196 74.382C356.292 74.3654 356.365 74.3505 356.415 74.3373L356.717 75.7443C356.621 75.7775 356.484 75.8139 356.305 75.8536C356.129 75.8933 355.914 75.9165 355.658 75.923C355.208 75.9362 354.802 75.8681 354.441 75.7189C354.079 75.5663 353.793 75.3309 353.581 75.0126C353.372 74.6944 353.269 74.2967 353.273 73.8194L353.275 66.3521ZM358.083 75.8193L358.086 68.1829L359.885 68.1834L359.883 75.8198L358.083 75.8193ZM358.991 67.0994C358.706 67.0993 358.46 67.0048 358.255 66.8158C358.049 66.6235 357.947 66.3931 357.947 66.1246C357.947 65.8529 358.05 65.6225 358.255 65.4337C358.461 65.2415 358.706 65.1455 358.991 65.1455C359.28 65.1456 359.525 65.2418 359.727 65.4341C359.932 65.6231 360.035 65.8534 360.035 66.1252C360.035 66.3937 359.932 66.624 359.727 66.8162C359.524 67.0051 359.279 67.0995 358.991 67.0994ZM363.535 71.3464L363.534 75.8208L361.734 75.8203L361.736 68.1839L363.456 68.1844L363.456 69.482L363.545 69.482C363.721 69.0545 364.001 68.7149 364.386 68.4631C364.774 68.2113 365.253 68.0855 365.823 68.0856C366.35 68.0858 366.809 68.1986 367.2 68.4241C367.594 68.6496 367.899 68.9761 368.114 69.4037C368.333 69.8314 368.44 70.3501 368.437 70.9599L368.436 75.8221L366.636 75.8217L366.637 71.2378C366.637 70.7274 366.505 70.328 366.24 70.0396C365.978 69.7512 365.615 69.6069 365.151 69.6068C364.836 69.6067 364.556 69.6762 364.311 69.8153C364.069 69.9512 363.878 70.1483 363.739 70.4068C363.603 70.6653 363.535 70.9785 363.535 71.3464ZM373.585 78.8463C372.939 78.8461 372.384 78.7581 371.92 78.5823C371.456 78.4099 371.083 78.1778 370.801 77.886C370.52 77.5943 370.324 77.2711 370.215 76.9164L371.836 76.5241C371.909 76.6732 372.015 76.8208 372.154 76.9666C372.293 77.1158 372.48 77.2385 372.716 77.3347C372.954 77.4342 373.254 77.484 373.615 77.4841C374.126 77.4842 374.548 77.3601 374.883 77.1116C375.218 76.8664 375.386 76.4621 375.386 75.8986L375.386 74.4519L375.297 74.4519C375.204 74.6375 375.068 74.828 374.889 75.0235C374.713 75.219 374.479 75.383 374.188 75.5155C373.899 75.648 373.536 75.7142 373.099 75.7141C372.512 75.7139 371.98 75.5762 371.503 75.301C371.029 75.0224 370.652 74.608 370.37 74.0578C370.092 73.5042 369.953 72.8114 369.953 71.9795C369.953 71.141 370.093 70.4334 370.371 69.8568C370.653 69.2768 371.033 68.8378 371.51 68.5396C371.987 68.2381 372.519 68.0875 373.106 68.0876C373.553 68.0878 373.921 68.1641 374.21 68.3166C374.501 68.4659 374.733 68.6466 374.905 68.8587C375.078 69.0676 375.209 69.2648 375.298 69.4505L375.397 69.4505L375.398 68.1877L377.173 68.1882L377.171 75.9488C377.17 76.6018 377.014 77.142 376.703 77.5695C376.391 77.9969 375.965 78.3167 375.425 78.5286C374.885 78.7406 374.271 78.8465 373.585 78.8463ZM373.601 74.3023C373.983 74.3024 374.307 74.2097 374.576 74.0241C374.844 73.8386 375.048 73.5718 375.188 73.2239C375.327 72.8759 375.397 72.4583 375.397 71.9711C375.397 71.4905 375.327 71.0696 375.188 70.7082C375.053 70.3469 374.85 70.0668 374.582 69.8679C374.317 69.6656 373.991 69.5644 373.603 69.5643C373.202 69.5642 372.867 69.6685 372.598 69.8773C372.33 70.086 372.128 70.3726 371.992 70.7372C371.856 71.0984 371.788 71.5094 371.787 71.9701C371.787 72.4374 371.855 72.8468 371.991 73.1981C372.13 73.5462 372.334 73.818 372.602 74.0136C372.874 74.2059 373.207 74.3022 373.601 74.3023Z" fill="#5C616F"/>
</g>
<defs>
<filter id="filter0_d_1_2623" x="0.0627441" y="0.737061" width="579.033" height="279.116" filterUnits="userSpaceOnUse" color-interpolation-filters="sRGB">
<feFlood flood-opacity="0" result="BackgroundImageFix"/>
<feColorMatrix in="SourceAlpha" type="matrix" values="0 0 0 0 0 0 0 0 0 0 0 0 0 0 0 0 0 0 127 0" result="hardAlpha"/>
<feOffset dx="20" dy="40"/>
<feGaussianBlur stdDeviation="40"/>
<feComposite in2="hardAlpha" operator="out"/>
<feColorMatrix type="matrix" values="0 0 0 0 0.178125 0 0 0 0 0.200292 0 0 0 0 0.316667 0 0 0 0.12 0"/>
<feBlend mode="multiply" in2="BackgroundImageFix" result="effect1_dropShadow_1_2623"/>
<feBlend mode="normal" in="SourceGraphic" in2="effect1_dropShadow_1_2623" result="shape"/>
</filter>
<clipPath id="clip0_1_2623">
<rect width="12" height="12" fill="white" transform="translate(88.5508 122.745) rotate(0.0158183)"/>
</clipPath>
<clipPath id="clip1_1_2623">
<rect width="12" height="12" fill="white" transform="matrix(0.999971 0.0076744 0.0076744 -0.999971 309.548 134.761)"/>
</clipPath>
</defs>
</svg>
