<svg width="28" height="34" viewBox="0 0 28 34" fill="none" xmlns="http://www.w3.org/2000/svg">
<path d="M10.0606 19.2727C9.47479 18.6869 8.52504 18.6869 7.93926 19.2727C7.35347 19.8585 7.35347 20.8082 7.93926 21.394L10.0606 19.2727ZM12.3333 23.6667L11.2726 24.7273C11.8584 25.3131 12.8081 25.3131 13.3939 24.7273L12.3333 23.6667ZM20.0606 18.0607C20.6464 17.4749 20.6464 16.5251 20.0606 15.9393C19.4748 15.3536 18.525 15.3536 17.9393 15.9393L20.0606 18.0607ZM24.1666 8.66667V28.6667H27.1666V8.66667H24.1666ZM22.3333 30.5H5.66659V33.5H22.3333V30.5ZM3.83325 28.6667V8.66667H0.833252V28.6667H3.83325ZM5.66659 6.83333H8.99992V3.83333H5.66659V6.83333ZM18.9999 6.83333H22.3333V3.83333H18.9999V6.83333ZM5.66659 30.5C4.65406 30.5 3.83325 29.6792 3.83325 28.6667H0.833252C0.833252 31.336 2.99721 33.5 5.66659 33.5V30.5ZM24.1666 28.6667C24.1666 29.6792 23.3458 30.5 22.3333 30.5V33.5C25.0026 33.5 27.1666 31.336 27.1666 28.6667H24.1666ZM27.1666 8.66667C27.1666 5.99729 25.0026 3.83333 22.3333 3.83333V6.83333C23.3458 6.83333 24.1666 7.65414 24.1666 8.66667H27.1666ZM3.83325 8.66667C3.83325 7.65414 4.65406 6.83333 5.66659 6.83333V3.83333C2.99721 3.83333 0.833252 5.99729 0.833252 8.66667H3.83325ZM7.93926 21.394L11.2726 24.7273L13.3939 22.606L10.0606 19.2727L7.93926 21.394ZM13.3939 24.7273L20.0606 18.0607L17.9393 15.9393L11.2726 22.606L13.3939 24.7273ZM12.3333 3.5H15.6666V0.5H12.3333V3.5ZM15.6666 7.16667H12.3333V10.1667H15.6666V7.16667ZM12.3333 7.16667C11.3207 7.16667 10.4999 6.34586 10.4999 5.33333H7.49992C7.49992 8.00271 9.66388 10.1667 12.3333 10.1667V7.16667ZM17.4999 5.33333C17.4999 6.34586 16.6791 7.16667 15.6666 7.16667V10.1667C18.336 10.1667 20.4999 8.00271 20.4999 5.33333H17.4999ZM15.6666 3.5C16.6791 3.5 17.4999 4.32081 17.4999 5.33333H20.4999C20.4999 2.66396 18.336 0.5 15.6666 0.5V3.5ZM12.3333 0.5C9.66388 0.5 7.49992 2.66396 7.49992 5.33333H10.4999C10.4999 4.32081 11.3207 3.5 12.3333 3.5V0.5Z" fill="white"/>
</svg>
